<?xml version="1.0" encoding="utf-8"?>
<!-- Generator: Adobe Illustrator 24.3.0, SVG Export Plug-In . SVG Version: 6.00 Build 0)  -->
<svg version="1.0" id="Layer_1" xmlns="http://www.w3.org/2000/svg" xmlns:xlink="http://www.w3.org/1999/xlink" x="0px" y="0px"
	 viewBox="0 0 1548.66 1503.91" style="enable-background:new 0 0 1548.66 1503.91;" xml:space="preserve">
<style type="text/css">
	.st0{fill:#EFC462;}
	.st1{fill:#3259A4;}
	.st2{fill:#3B6AB1;}
	.st3{fill:#F4D37E;}
	.st4{fill:#2B6668;}
	.st5{fill:#FF3B3B;}
	.st6{fill:#FFFFE7;}
	.st7{fill:#EDECD6;}
	.st8{fill:#8D978F;}
	.st9{fill:#7E8780;}
	.st10{fill:#914C3A;}
</style>
<g>
	<rect x="696.26" y="657.64" class="st0" width="147.8" height="192.89"/>
	<path class="st1" d="M1053.7,497.32c0,0-15.87-29.77-22.37,11.56c-6.5,41.33,48.87,66.59,48.87,66.59
		C1042.59,534.84,1053.7,497.32,1053.7,497.32z"/>
	<path class="st2" d="M1007.56,555.58L1007.56,555.58c-22.51,30.61-47.1,58.31-72.55,82.12l0,0c0,0,51.25,29.9-17.04,245.71
		c-68.3,215.82,157.46,363.25,157.46,363.25c-69.1-183.76-35.67-190.18,64.65-382.49C1240.39,671.87,1007.56,555.58,1007.56,555.58z
		"/>
	<path class="st1" d="M1007.56,555.58L1007.56,555.58c-22.51,30.61-47.1,58.31-72.55,82.12l0,0c0,0,51.25,29.9-17.04,245.71
		c-10.05,31.75-13.69,62-12.67,90.54v0c26.04-153.77,66.1-168.17,141.89-245.29c41.9-42.63,30.52-98.39,11.97-139.73
		C1030.66,567.12,1007.56,555.58,1007.56,555.58z"/>
	<path class="st3" d="M774.33,81.58c-156.66,0-300.36,97.98-300.36,273.96c0,92.75,46.79,184.5,110.37,252.73
		c98.9,106.13,281.09,106.13,379.99,0c63.58-68.23,110.37-159.98,110.37-252.73C1074.69,179.56,930.99,81.58,774.33,81.58z"/>
	<ellipse class="st3" cx="1063.49" cy="425.49" rx="74.94" ry="71.83"/>
	<ellipse class="st3" cx="485.17" cy="425.49" rx="74.94" ry="71.83"/>
	<path class="st1" d="M1001.1,98.73c-0.15-0.16-0.32-0.3-0.47-0.46C950.22,47.1,885.68,14.23,815.56,3.69
		c-0.52-0.08-1.05-0.12-1.57-0.2c-4.89-0.71-9.8-1.35-14.74-1.84c-1.96-0.2-3.94-0.28-5.91-0.44c-3.53-0.29-7.05-0.62-10.6-0.79
		C777.21,0.14,771.65,0,766.07,0c-4.64,0-9.25,0.14-13.86,0.34c-1.65,0.07-3.3,0.13-4.95,0.23c-3.48,0.21-6.95,0.47-10.41,0.78
		c-2.95,0.26-5.88,0.56-8.82,0.9c-0.06,0.01-0.13,0.01-0.19,0.02c0,0,0,0,0,0c-162.64,18.76-298.29,156.6-302.26,365.4
		c-15.24,146.05,75.78,320.19,75.78,320.19c-54.28-127.07-6.08-292.85-6.08-292.85c14.22-26.07,38.94-45.44,68.46-53.5
		c48.47-13.23,99.28-31.02,150.6-53.33c53.77-23.37,103.3-49.6,147.15-77.21c81.8,89.54,174.07,147.26,245.08,157.14
		C1104.51,254.98,1063.81,162.64,1001.1,98.73L1001.1,98.73z"/>
	<path class="st2" d="M1149.89,749.71l-27.91-0.11c0,0-11.99,31.79,24.34,93.17c36.33,61.38,85.49,43.71,85.49,43.71
		C1170.69,872.29,1149.89,749.71,1149.89,749.71z"/>
	<g>
		<path class="st4" d="M1063.24,333.25c-17.6-3.78-73.57-14-135-6.67c-74.36,8.87-124.74,21.05-153.9,18.35
			c-29.16,2.71-79.55-9.47-153.9-18.35c-61.43-7.33-117.4,2.89-135,6.67c-3.34,0.72-5.71,3.56-5.71,6.85v23.12
			c0,2.74,1.65,5.28,4.27,6.37c21.84,9.14,23.85,59.69,29.61,96.23c6.12,38.8,56.4,46.22,108.71,46.46
			c34.04,0.16,60.39-4.96,79.38-13.36c38.79-17.16,45.34-106.64,49.1-114.76c3.76-8.12,23.55-6.32,23.55-6.32s19.78-1.8,23.55,6.32
			c3.76,8.12,10.31,97.6,49.1,114.76c18.98,8.4,45.33,13.52,79.38,13.36c52.31-0.25,102.59-7.67,108.71-46.46
			c5.76-36.54,7.77-87.09,29.61-96.23c2.62-1.1,4.27-3.63,4.27-6.37V340.1C1068.94,336.81,1066.58,333.97,1063.24,333.25z"/>
		<path class="st3" d="M685.37,350.19c-43.12-6.98-81.45-9.65-91.83-10.29c-1.32-0.08-2.62-0.17-3.93-0.27
			c-8.99-0.68-66.48-2.65-65.18,58.07c1.41,65.86,6.59,91.12,51.77,97.44c45.18,6.32,77.65,4.96,101.18-5.86
			c23.53-10.83,35.77-19.85,47.53-66.76C736.67,375.6,731.59,357.68,685.37,350.19z"/>
		<path class="st3" d="M959.06,339.63c-1.32,0.1-2.62,0.18-3.93,0.27c-10.38,0.64-48.71,3.31-91.83,10.29
			c-46.22,7.49-51.3,25.41-39.53,72.33c11.77,46.92,24,55.94,47.53,66.76c23.53,10.83,56,12.18,101.18,5.86
			c45.18-6.32,50.35-31.58,51.77-97.44C1025.54,336.99,968.04,338.96,959.06,339.63z"/>
	</g>
	<path class="st5" d="M837.36,752.49c-29.59,57.6-117.3,52.84-139.27-7.81c-0.7-1.94-1.07-3.22-1.05-3.73L423.87,821.1v659h346.3
		h354.63V823.54l-281.51-82.59L837.36,752.49z"/>
	<path class="st3" d="M490.1,1251.53H189.88c-2.12,0-6.06,0-8.54-5.3c-1.51-3.21-1.14-5.51-0.3-7.17L502.1,970.63
		c37.49-31.34,41.37-85.89,8.67-121.82c-32.7-35.94-89.6-39.66-127.09-8.32L56.27,1114.24c-2.9,2.42-5.63,5.02-8.19,7.78
		c-50.16,54.22-62.05,128.96-31.04,195.05c31.01,66.09,97.24,107.15,172.84,107.15H490.1c49.75,0,90.08-38.66,90.08-86.34
		C580.18,1290.19,539.85,1251.53,490.1,1251.53z"/>
	<path class="st5" d="M383.69,840.49l-240.77,201.3c19.57,44.38,57.62,95.99,131.16,119.48L502.1,970.63
		c37.49-31.34,41.37-85.89,8.67-121.82C478.08,812.87,421.18,809.15,383.69,840.49z"/>
	<path class="st3" d="M1492.39,1114.24l-327.42-273.75c-37.49-31.34-94.39-27.62-127.09,8.32c-32.7,35.94-28.82,90.48,8.67,121.82
		l321.08,268.44c0.83,1.65,1.2,3.96-0.3,7.17c-2.49,5.3-6.43,5.3-8.54,5.3h-300.23c-49.75,0-90.08,38.66-90.08,86.34
		c0,47.69,40.33,86.34,90.08,86.34h300.23c75.6,0,141.83-41.06,172.84-107.15c31.01-66.09,19.12-140.83-31.04-195.05
		C1498.03,1119.26,1495.29,1116.66,1492.39,1114.24z"/>
	<path class="st5" d="M1037.88,848.81c-32.7,35.94-28.82,90.48,8.67,121.82l228.02,190.64c73.55-23.49,111.59-75.1,131.16-119.48
		l-240.77-201.3C1127.48,809.15,1070.58,812.87,1037.88,848.81z"/>
	<g>
		<path class="st6" d="M1308.82,823.97H245.16c-20.67,0-37.42,16.06-37.42,35.87v644.06h1138.51V859.85
			C1346.24,840.03,1329.49,823.97,1308.82,823.97z"/>
		<polygon class="st7" points="207.73,1343.15 207.73,1503.91 1346.24,1503.91 1346.24,965.81 		"/>
		<ellipse class="st8" cx="776.99" cy="1163.94" rx="55.73" ry="53.42"/>
		<path class="st9" d="M823.77,1140.67c0,29.5-24.95,53.42-55.73,53.42c-19.35,0-36.39-9.46-46.38-23.8
			c3.27,26.51,26.79,47.07,55.32,47.07c30.78,0,55.73-23.92,55.73-53.42c0-10.96-3.45-21.14-9.35-29.61
			C823.63,1136.41,823.77,1138.52,823.77,1140.67z"/>
	</g>
	<path class="st10" d="M627.35,440.01c-18.55,0-34.17-11.94-39-28.24c-1,3.38-1.55,6.94-1.55,10.63c0,21.46,18.15,38.87,40.55,38.87
		c22.39,0,40.55-17.4,40.55-38.87c0-3.69-0.55-7.25-1.55-10.63C661.52,428.07,645.89,440.01,627.35,440.01z"/>
	<path class="st10" d="M921.31,440.01c-18.55,0-34.17-11.94-39-28.24c-1,3.38-1.55,6.94-1.55,10.63c0,21.46,18.15,38.87,40.55,38.87
		c22.39,0,40.55-17.4,40.55-38.87c0-3.69-0.55-7.25-1.55-10.63C955.48,428.07,939.86,440.01,921.31,440.01z"/>
	<ellipse class="st10" cx="774.33" cy="595.18" rx="24.28" ry="34.9"/>
	<path class="st6" d="M774.33,560.28c-10.61,0-19.6,9.79-22.9,23.42h45.81C793.93,570.07,784.93,560.28,774.33,560.28z"/>
</g>
</svg>
