<?xml version="1.0" encoding="utf-8"?>
<!-- Generator: Adobe Illustrator 24.3.0, SVG Export Plug-In . SVG Version: 6.00 Build 0)  -->
<svg version="1.0" id="Capa_1" xmlns="http://www.w3.org/2000/svg" xmlns:xlink="http://www.w3.org/1999/xlink" x="0px" y="0px"
	 viewBox="0 0 550.66 570.62" style="enable-background:new 0 0 550.66 570.62;" xml:space="preserve">
<style type="text/css">
	.st0{fill:#E1E8F7;}
	.st1{fill:#CEDAF1;}
	.st2{fill:#F1F2F2;}
	.st3{clip-path:url(#SVGID_2_);}
	.st4{fill:#F4D87E;}
	.st5{fill:#335AA6;}
	.st6{fill:#D31F26;}
	.st7{fill:#E52629;}
	.st8{fill:#E62A29;}
	.st9{fill:#D1D2D4;}
	.st10{fill:#A7A9AB;}
	.st11{fill:#BDBEC0;}
	.st12{fill:#3C6AB2;}
	.st13{fill:#1D1D1E;}
	.st14{fill:#A97D50;}
	.st15{fill:#E7E8E9;}
	.st16{fill:#808386;}
	.st17{fill:#1F2347;}
	.st18{fill:#6684C2;}
	.st19{fill:#F5D47E;}
</style>
<g>
	<g>
		<g>
			<path class="st0" d="M548.25,338.65c-0.28-36.26-0.01-72.62,0.82-109.06c0.02-0.97,0.04-1.93,0.06-2.9
				c0.58-32.39-1.55-65.18-11.14-92.82c-5.23-15.07-12.68-28.61-23.12-39.73c-25.94-27.62-52.53-40.46-83.57-38.83
				c-31.18,1.64-62.06,1.72-91.47-14.01c-43.13-23.06-103.1-14.79-147.05,12.15c-38.15,23.39-65.75,69.58-83.05,113.46
				c-18.4,46.65-32.16,109.64-19.38,162.11c5.8,23.81,19.4,47.35,40.03,57.21c17.51,8.37,37.82,6.42,56.95,9.05
				c33.51,4.6,63.59,23.5,89.32,48.22c39.42,37.87,67.53,104.29,117.63,122.7c19.05,7,41.14,5.63,62.96-3.89
				c41.24-18.01,79.71-68.06,90.34-122.23C553.97,407.44,548.5,370.98,548.25,338.65z"/>
		</g>
		<path class="st1" d="M215.39,162.48h-12.97c-2.1-8.43-5.43-16.36-9.79-23.62l9.18-9.18c3.04-3.04,3.04-7.98,0-11.03l-18.89-18.89
			c-3.04-3.05-7.98-3.05-11.03,0l-9.18,9.18c-7.25-4.36-15.19-7.68-23.62-9.79V86.18c0-4.31-3.49-7.8-7.8-7.8h-26.72
			c-4.31,0-7.8,3.49-7.8,7.8v12.97c-8.43,2.1-16.36,5.43-23.62,9.79l-9.18-9.18c-3.04-3.05-7.98-3.05-11.03,0l-18.89,18.89
			c-3.04,3.04-3.04,7.98,0,11.03l9.18,9.18c-4.36,7.25-7.68,15.19-9.79,23.62H20.48c-4.31,0-7.8,3.49-7.8,7.8v26.72
			c0,4.31,3.49,7.8,7.8,7.8h12.97c2.1,8.43,5.43,16.36,9.79,23.62l-9.18,9.18c-3.04,3.04-3.04,7.98,0,11.03l18.89,18.89
			c3.04,3.04,7.98,3.04,11.03,0l9.18-9.18c7.25,4.36,15.19,7.68,23.62,9.79v12.97c0,4.31,3.49,7.8,7.8,7.8h26.72
			c4.31,0,7.8-3.49,7.8-7.8v-12.97c8.43-2.1,16.36-5.43,23.62-9.79l9.18,9.18c3.04,3.04,7.98,3.04,11.03,0l18.89-18.89
			c3.04-3.04,3.04-7.98,0-11.03l-9.18-9.18c4.36-7.25,7.68-15.19,9.79-23.62h12.97c4.31,0,7.8-3.49,7.8-7.8v-26.72
			C223.18,165.97,219.69,162.48,215.39,162.48z M117.93,236.34c-29.11,0-52.7-23.6-52.7-52.7c0-29.11,23.6-52.7,52.7-52.7
			c29.11,0,52.7,23.6,52.7,52.7C170.64,212.74,147.04,236.34,117.93,236.34z"/>
		<g>
			<path class="st0" d="M123.67,467.15h-5.1c-0.83-3.31-2.13-6.43-3.85-9.28l3.61-3.61c1.2-1.2,1.2-3.14,0-4.33l-7.42-7.42
				c-1.2-1.2-3.14-1.2-4.33,0l-3.61,3.61c-2.85-1.71-5.97-3.02-9.28-3.85v-5.1c0-1.69-1.37-3.06-3.06-3.06h-10.5
				c-1.69,0-3.06,1.37-3.06,3.06v5.1c-3.31,0.83-6.43,2.13-9.28,3.85l-3.61-3.61c-1.2-1.2-3.14-1.2-4.33,0l-7.42,7.42
				c-1.2,1.2-1.2,3.14,0,4.33l3.61,3.61c-1.71,2.85-3.02,5.97-3.85,9.28h-5.1c-1.69,0-3.06,1.37-3.06,3.06v10.5
				c0,1.69,1.37,3.06,3.06,3.06h5.1c0.83,3.31,2.13,6.43,3.85,9.28l-3.61,3.61c-1.2,1.2-1.2,3.14,0,4.33l7.42,7.42
				c1.2,1.2,3.14,1.2,4.33,0l3.61-3.61c2.85,1.71,5.97,3.02,9.28,3.85v5.1c0,1.69,1.37,3.06,3.06,3.06h10.5
				c1.69,0,3.06-1.37,3.06-3.06v-5.1c3.31-0.83,6.43-2.13,9.28-3.85l3.61,3.61c1.2,1.2,3.14,1.2,4.33,0l7.42-7.42
				c1.2-1.2,1.2-3.14,0-4.33l-3.61-3.61c1.71-2.85,3.02-5.97,3.85-9.28h5.1c1.69,0,3.06-1.37,3.06-3.06v-10.5
				C126.73,468.52,125.36,467.15,123.67,467.15z M85.37,496.18c-11.44,0-20.71-9.27-20.71-20.71c0-11.44,9.27-20.71,20.71-20.71
				s20.71,9.27,20.71,20.71C106.08,486.9,96.81,496.18,85.37,496.18z"/>
			<path class="st0" d="M74.13,415.13h-3.11c-0.5-2.02-1.3-3.92-2.34-5.66l2.2-2.2c0.73-0.73,0.73-1.91,0-2.64l-4.53-4.52
				c-0.73-0.73-1.91-0.73-2.64,0l-2.2,2.2c-1.74-1.04-3.64-1.84-5.66-2.34v-3.11c0-1.03-0.84-1.87-1.87-1.87h-6.4
				c-1.03,0-1.87,0.84-1.87,1.87v3.11c-2.02,0.5-3.92,1.3-5.66,2.34l-2.2-2.2c-0.73-0.73-1.91-0.73-2.64,0l-4.53,4.52
				c-0.73,0.73-0.73,1.91,0,2.64l2.2,2.2c-1.04,1.74-1.84,3.64-2.34,5.66h-3.11c-1.03,0-1.87,0.84-1.87,1.87v6.4
				c0,1.03,0.84,1.87,1.87,1.87h3.11c0.5,2.02,1.3,3.92,2.34,5.66l-2.2,2.2c-0.73,0.73-0.73,1.91,0,2.64l4.53,4.53
				c0.73,0.73,1.91,0.73,2.64,0l2.2-2.2c1.74,1.04,3.64,1.84,5.66,2.34v3.11c0,1.03,0.84,1.87,1.87,1.87h6.4
				c1.03,0,1.87-0.84,1.87-1.87v-3.11c2.02-0.5,3.92-1.3,5.66-2.34l2.2,2.2c0.73,0.73,1.91,0.73,2.64,0l4.53-4.53
				c0.73-0.73,0.73-1.91,0-2.64l-2.2-2.2c1.04-1.74,1.84-3.64,2.34-5.66h3.11c1.03,0,1.87-0.84,1.87-1.87v-6.4
				C76,415.96,75.16,415.13,74.13,415.13z M50.79,432.82c-6.97,0-12.62-5.65-12.62-12.62c0-6.97,5.65-12.62,12.62-12.62
				c6.97,0,12.62,5.65,12.62,12.62C63.41,427.17,57.76,432.82,50.79,432.82z"/>
		</g>
	</g>
	<g>
		<ellipse class="st2" cx="187.33" cy="540.61" rx="187.33" ry="21.9"/>
		<g>
			<g>
				<g>
					<defs>
						<path id="SVGID_1_" d="M429.22,375.8c-27.78,23.98-44.37,58.36-44.37,95.06l0,0H244.32v-0.01c0-36.58-16.39-70.99-44.12-94.83
							c-38.01-32.68-61.87-81.34-61.09-135.59c1.32-91.57,75.67-168.48,167.15-172.71c100.71-4.65,183.81,75.62,183.81,175.3
							C490.07,296.11,466.48,343.64,429.22,375.8z M385.56,482.66H243.59v22.06h141.97V482.66z M385.56,518.22L385.56,518.22H243.59
							l0,0c0,21.25,17.23,38.48,38.48,38.48h65.02C368.34,556.69,385.56,539.47,385.56,518.22z"/>
					</defs>
					<use xlink:href="#SVGID_1_"  style="overflow:visible;fill:#9AB0DC;"/>
					<clipPath id="SVGID_2_">
						<use xlink:href="#SVGID_1_"  style="overflow:visible;"/>
					</clipPath>
					<g class="st3">
						<g>
							<path class="st4" d="M375.32,369.12l8.18,11.38l5.15,1.81c1.91,0.67,4.45,3.71,3.76,5.62c-3.55,9.78-15.17,36.23-18.11,40.05
								c0,0-3.92-3.27-2.5-6.59c1.43-3.33,3.5-28.38,3.5-28.38l-7.81-10.49L375.32,369.12z"/>
							<path class="st5" d="M394.42,387.06c0,0-5.19-6.08-8.3-5.64c0,0,2.72,4.3,1.7,10.03c-1.54,4.74-5.37,20.22-13.93,16.86
								c-1.47,5.31-3.41,15.95-2.59,21.02c0,0,2.75,0.64,4.33-1.04c0,0,5.84-8.14,7.81-11.25l9.82-24.16l7.01-0.24l1.24-2.82
								L394.42,387.06z"/>
							<path class="st5" d="M401.91,272.1c0,0-77.75,14.26-87.88,19.51c-10.13,5.24-1.57,17.55,12.12,36.23
								c13.68,18.68,43.73,61.96,43.73,61.96l11.79-13.47l-33.74-59.9c0,0,81.01,1.64,89-7.79c7.98-9.43,7.72-22.13,3.63-37.17
								L401.91,272.1z"/>
						</g>
						<g>
							<path class="st5" d="M339.8,115.74c-7.7-0.18-25.63,31.29,25.54,49c17.47,6.05,50.86-1.39,57.76-10.52
								c0,0-27.7-60.26-57.12-57.33C341.42,99.33,339.8,115.74,339.8,115.74z"/>
							<g>
								<path class="st4" d="M279.13,247.97l11.61-7.46l15.27,2.37l52.12-10.79l1.76,15.27l-52.01,1.53l-5.57,1.26
									c-1.62,0.37-3.32,0.13-4.78-0.66l-6.96-3.77l-10.22,5.89L279.13,247.97z"/>
								<path class="st6" d="M373.47,165.67c-11.98,1.55-6.08,19.39-11.27,63.43l-50.8,8.53l2.75,12.35c0,0,55.06-0.67,63.46-2.06
									C386.82,225.1,393.72,163.06,373.47,165.67z"/>
							</g>
							<path class="st4" d="M395.75,163.26c-5.36,4.99-4.49,11.11-12.28,10.79c-12.15,1.7-11.77-14.27-11.77-14.27
								c-4.67,1.55-13.26,2.32-20.1-7.97c-7.78-11.71-9.94-22.17-11.09-32.08c-0.74-6.36,1.95-10.47,12.69-13.44
								c10.74-2.98,18.7,0.25,27.48,11.69c7.19,9.38,8.43,31.42,8.43,31.42C391,153.44,395.75,163.26,395.75,163.26z"/>
							<path class="st7" d="M440.55,271.45c0,0-25.35,2.08-38.64,0.64c-5.06-39.71-10.99-48.91-10.99-48.91
								c-13.67-1.7-17.7-6.08-17.7-12.66c-2.29-26.53-5.83-41.06-5.83-41.06c1.81-2.93,5.22-3.59,5.22-3.59s1.33,9.29,10.86,8.17
								c10.29-1.21,5.63-12.98,5.63-12.98c5.5-3.6,11.34-3.88,17.39-2.52c6.05,1.36,11.27,5.27,15.43,9.88
								c9.79,10.84,10.24,22.29,11.83,36.81c1.59,14.52-1.03,20.05-0.22,37.73C434.1,255.49,439.75,268.36,440.55,271.45z"/>
							<g>
								<path class="st4" d="M320.57,267.01l6.76-11.13c0.87-1.17,2.17-1.96,3.61-2.18l13.73-2.14l57.31-9.66l0.62,14.69
									l-53.93,0.87l-5.07,3.21c-1.48,0.93-3.24,1.24-4.97,0.87l-8.24-1.78l-8.03,9.77L320.57,267.01z"/>
								<path class="st8" d="M397.9,167.39c2.32-5.28,4.59-8.96,10.93-8.73c17.75,0.64,5.55,26.98,18.03,78.26
									c1.26,5.2,1.98,19.09-12.73,19.92c-14.71,0.83-56.78,5.39-56.78,5.39l-5.75-16.93l51.59-7.14
									C403.19,238.17,391.89,181.06,397.9,167.39z"/>
							</g>
						</g>
						<g>
							<path class="st9" d="M305.29,264.73h-92.12l-15.94-51.11c-1.34-4.29,1.87-8.65,6.36-8.65h78.15c2.92,0,5.49,1.9,6.36,4.68
								L305.29,264.73z"/>
							<path class="st10" d="M352.71,270.09H217.19c-2.22,0-4.01-1.8-4.01-4.01v-1.35h139.53c1.01,0,1.83,0.82,1.83,1.83v1.71
								C354.53,269.27,353.72,270.09,352.71,270.09z"/>
							<path class="st11" d="M302.46,270.09h-85.19c-2.26,0-4.1-1.83-4.1-4.1v-1.27h92.12v2.53
								C305.29,268.82,304.02,270.09,302.46,270.09z"/>
							<path class="st2" d="M246.17,228.87c-0.2,0-0.4,0.04-0.6,0.07c-0.03,3.02-1.91,5.48-4.34,5.84c0,0.02-0.01,0.05-0.01,0.07
								c0,3.3,2.21,5.98,4.94,5.98c2.73,0,4.94-2.68,4.94-5.98C251.11,231.54,248.9,228.87,246.17,228.87z"/>
						</g>
						<g>
							<g>
								<path class="st4" d="M346.04,407.01l1.05,11.87l1.64,5.21c0.61,1.94-0.3,5.79-2.24,6.38c-9.95,3.03-38.08,9.61-42.9,9.55
									c0,0,0.26-5.1,3.78-5.96c3.52-0.86,24.8-14.23,24.8-14.23l-0.09-10.05L346.04,407.01z"/>
								<path class="st5" d="M348.92,433.21c0,0,0.47-9.7-0.91-12.24c0,0-1.9,5.31-7.09,7.93c-4.72,1.61-19.4,7.84-21.85-1.03
									c-5.13,2.01-14.8,6.84-18.36,10.54c0,0,1.14,2.58,3.43,2.84c0,0,10.02-0.22,13.69-0.5l26.25-5.37l3.38,4.19l3-0.7
									L348.92,433.21z"/>
							</g>
							<path class="st12" d="M440.55,271.45c6.92,14.5,20.55,48.69-14.22,50.73c-40.03,2.35-89.89,1.94-89.89,1.94l11.77,87.65
								l-18.82,3.57c0,0-5.06-30.68-12.14-57.96c-7.08-27.28-22.79-54.17-2.03-61.67C335.97,288.22,440.55,271.45,440.55,271.45z"/>
						</g>
						<g>
							<g>
								<path class="st13" d="M339.17,472.23h-131.1c-4.37,0-8.18-2.95-9.94-7.69c-1.76-4.74-1.03-10.06,1.92-13.89l68.7-89.19
									l-60.99-79.18c-1.34-1.74-1.24-4.44,0.23-6.03c1.47-1.59,3.74-1.47,5.08,0.27l60.55,78.61l60.55-78.61
									c1.34-1.74,3.62-1.86,5.08-0.27c1.47,1.59,1.57,4.29,0.23,6.03l-60.99,79.18l68.7,89.19c2.95,3.82,3.68,9.15,1.92,13.89
									C347.35,469.28,343.54,472.23,339.17,472.23z M273.62,367.78l-68.26,88.62c-1.5,1.94-0.88,4.08-0.65,4.69
									c0.23,0.61,1.14,2.6,3.36,2.6h131.1c2.22,0,3.13-1.99,3.36-2.6c0.23-0.61,0.85-2.75-0.65-4.69L273.62,367.78z"/>
							</g>
							<g>
								<path class="st14" d="M389.93,280.24H157.32c-2.8,0-5.08-2.27-5.08-5.08l0,0c0-2.8,2.27-5.08,5.08-5.08h232.61
									c2.8,0,5.08,2.27,5.08,5.08l0,0C395.01,277.97,392.74,280.24,389.93,280.24z"/>
							</g>
						</g>
						<g>
							<g>
								<polygon class="st13" points="457.45,458.76 397.46,458.76 411.22,330.87 415.98,331.39 402.8,453.97 452.12,453.97 
									438.97,331.79 443.74,331.28 								"/>
							</g>
							<g>
								<path class="st13" d="M443.64,472.58h-60l16.1-148.2h27.8L443.64,472.58z M388.98,467.79h49.31l-15.06-138.62h-19.2
									L388.98,467.79z"/>
							</g>
							<g>
								<rect x="380.01" y="321.88" class="st14" width="75.47" height="10.36"/>
								<polygon class="st14" points="459.14,332.24 451.91,332.24 459.14,293.17 466.37,293.17 								"/>
							</g>
						</g>
					</g>
				</g>
			</g>
			<g>
				<path class="st12" d="M396.39,163.89c-20.75,6.33-17.75-14.24-17.75-14.24c7.88,1.74,5.72-17.13-2.31-18.2
					c-5.12-0.68-3.98,7.06-3.98,7.06c-18.25,11.03-40.79-8.65-38.71-22.71c1.13-7.6,3-12.58,11.8-17.9
					c10.79-6.52,21.47-4.07,31.14-0.39c20.81,7.91,21.15,28.92,42.84,29.92c49.2,2.27,37.75,34.84,65.43,42.95
					c15.91,4.66,36.2,9.05,37.49,35.31c1.56,31.84-54.5,32.82-71.43,29.21c-22.04-4.71-24.96-41.51-29.53-55.38
					C415.75,162.41,410.12,159.7,396.39,163.89z"/>
			</g>
		</g>
	</g>
	<g>
		<g>
			<path class="st5" d="M186.68,226.8c-10.73,0-14.97,4.43-14.97,13.97c0,0.88-1.67,0.88-1.67,0c0-9.54-3.39-13.97-14.97-13.97
				c-0.87,0-0.87-1.67,0-1.67c11.93,0,14.97-5.52,14.97-13.95c0-0.88,1.67-0.88,1.67,0c0,10.04,4.06,13.95,14.97,13.95
				C187.54,225.13,187.55,226.8,186.68,226.8z"/>
		</g>
		<g>
			<path class="st5" d="M134.88,181.01c-14.95,0-20.86,6.18-20.86,19.47c0,1.22-2.32,1.22-2.32,0c0-13.29-4.73-19.47-20.86-19.47
				c-1.21,0-1.21-2.33,0-2.33c16.63,0,20.86-7.7,20.86-19.45c0-1.22,2.32-1.22,2.32,0c0,13.99,5.66,19.45,20.86,19.45
				C136.09,178.68,136.09,181.01,134.88,181.01z"/>
		</g>
		<g>
			<path class="st5" d="M193.9,91.22c-26.8,0-37.39,11.07-37.39,34.89c0,2.19-4.17,2.19-4.17,0c0-23.82-8.48-34.89-37.39-34.89
				c-2.16,0-2.16-4.17,0-4.17c29.81,0,37.39-13.8,37.39-34.85c0-2.19,4.17-2.19,4.17,0c0,25.07,10.15,34.85,37.39,34.85
				C196.06,87.05,196.06,91.22,193.9,91.22z"/>
		</g>
	</g>
	<g>
		<g>
			<path class="st15" d="M177.17,547.13c0,3.75-17.01,6.79-38,6.79s-38-3.04-38-6.79c0-3.75,17.01-6.79,38-6.79
				S177.17,543.37,177.17,547.13z"/>
		</g>
		<g>
			<g>
				<g>
					<path class="st11" d="M174.68,549c-8.08,2.45-20.6,2.28-29.38,0c-2.08-0.54-4-1.52-4.42-3.63l-8.35-41.9h54.92l-8.35,41.9
						C178.68,547.48,176.74,548.38,174.68,549z"/>
				</g>
				<g>
					<ellipse class="st16" cx="160.08" cy="503.48" rx="27.37" ry="4.01"/>
				</g>
				<g>
					<path class="st9" d="M186.31,509.22c-5.73,4.7-12,8.73-18.67,11.96c-1.89,0.91-3.9,1.84-5.13,3.54
						c-1.23,1.7-1.27,4.46,0.49,5.61c0.74,0.48,1.85,0.83,1.85,1.72c0,0.39-0.25,0.74-0.51,1.03c-1.86,2.12-4.67,3.13-6.83,4.94
						c-2.16,1.81-3.56,5.29-1.65,7.37c0.86,0.93,1.92,1.73,3.1,2.18c1.55,0.59,1.89,3.2,2.5,3.2c8.23,0.01,13.22-1.77,13.22-1.77
						c2.15,0,4-1.52,4.42-3.63L186.31,509.22z"/>
				</g>
			</g>
			<g>
				<g>
					<path class="st12" d="M150.51,294.56c-1.76-7.25-1.39-13.92-0.17-21.28c1.21-7.36,4.46-14.3,11.79-12.93
						c7.02,1.31,9.55,9.85,9.95,16c0.56,8.54-2.19,16.75-3.12,25.15c-1.41,12.73,1.51,26.64,4.84,39.01
						c2.68,9.92,6.02,17.94,8.62,29.52c1.6,7.12,2.04,17.02-0.29,26.6c-2.35,9.67-17.74,44.29-20.72,79.79
						c-1.42-45.4-10.44-58.13-13.44-73.62c-1.24-6.39-2.59-12.73-2.02-19.21c1.47-16.54,6.05-32.62,8.81-49
						C157.51,318.23,154.67,311.7,150.51,294.56z"/>
				</g>
				<g>
					<g>
						<path class="st17" d="M159.77,504.44c-0.03,0-0.06,0-0.08,0c-0.53-0.05-0.92-0.51-0.88-1.04
							c7.01-81.51,1.4-221.32,1.35-222.72c-0.02-0.53,0.39-0.98,0.92-1c0.52-0.02,0.98,0.39,1,0.92
							c0.06,1.4,5.67,141.33-1.35,222.97C160.68,504.06,160.26,504.44,159.77,504.44z"/>
					</g>
					<g>
						<path class="st17" d="M163.16,420.7c-0.01,0-0.03,0-0.04,0c-0.53-0.02-0.94-0.47-0.92-1.01c1.08-23.97,12.02-31.4,12.49-31.71
							c0.45-0.29,1.04-0.17,1.33,0.28c0.29,0.44,0.17,1.04-0.28,1.33l0,0c-0.11,0.07-10.59,7.3-11.62,30.19
							C164.1,420.29,163.67,420.7,163.16,420.7z"/>
					</g>
					<g>
						<path class="st17" d="M163.3,403.33c-0.51,0-0.93-0.39-0.96-0.91c-1.44-24.33-10.47-27.74-10.56-27.78
							c-0.5-0.17-0.77-0.72-0.6-1.22c0.17-0.5,0.7-0.77,1.2-0.61c0.42,0.14,10.35,3.63,11.88,29.49c0.03,0.53-0.37,0.99-0.9,1.02
							C163.34,403.32,163.32,403.33,163.3,403.33z"/>
					</g>
					<g>
						<path class="st17" d="M163.22,373.42c-0.03,0-0.06,0-0.09,0c-0.53-0.05-0.92-0.52-0.87-1.05c1.81-18.87,7.79-24.34,8.04-24.57
							c0.4-0.35,1.01-0.31,1.36,0.08c0.35,0.4,0.31,1-0.08,1.36c-0.08,0.07-5.68,5.38-7.41,23.31
							C164.13,373.05,163.71,373.42,163.22,373.42z"/>
					</g>
				</g>
			</g>
			<g>
				<g>
					<path class="st12" d="M99.82,361.49c-2.11-5.23-11.22-25.03-9.73-31.78c3.92,1.56,14.82,18.45,18.4,26.01
						c4.35,8.79,12.84,21.85,18.66,29.85c4.68,6.4,7.33,8.08,10.83,15.28c2.58,5.1,6.6,26.31,6.89,33.93
						c0.61,14.24-3.08,17.06,1.09,43.94c-8.88-33.81-27.81-53.94-30.87-63.96c-3.52-11.42-3.62-16.06-6.33-28.28
						C105.88,374.3,106.51,377.38,99.82,361.49z"/>
				</g>
				<g>
					<g>
						<path class="st17" d="M149.6,505.4c-0.5,0-0.92-0.38-0.96-0.89c-4.78-60.58-44.27-144.95-47.95-149.63
							c-0.09-0.05-0.16-0.11-0.23-0.19c-0.35-0.4-0.31-1.01,0.09-1.36c0.27-0.24,0.7-0.31,1.04-0.17
							c1.62,0.66,13.28,25.32,23.5,52.18c10.17,26.71,22.84,65.58,25.48,99.01c0.04,0.53-0.35,0.99-0.88,1.04
							C149.65,505.4,149.62,505.4,149.6,505.4z M101.81,354.79c-0.05,0.04-0.09,0.07-0.14,0.1
							C101.71,354.87,101.76,354.83,101.81,354.79z M101.81,354.79C101.81,354.79,101.81,354.79,101.81,354.79
							C101.81,354.79,101.81,354.79,101.81,354.79z"/>
					</g>
					<g>
						<path class="st17" d="M136.5,442.75c-0.43,0-0.82-0.29-0.93-0.72c-4.47-17.21,0.81-25.92,1.68-26.47
							c0.45-0.28,1.04-0.15,1.33,0.3c0.23,0.36,0.19,0.82-0.07,1.13c-0.25,0.36-5.41,7.87-1.07,24.56c0.13,0.51-0.17,1.04-0.69,1.17
							C136.66,442.74,136.58,442.75,136.5,442.75z"/>
					</g>
					<g>
						<path class="st17" d="M132.63,430.06c-0.38,0-0.75-0.23-0.9-0.61c-6.51-16.41-13.34-17.17-14.09-17.2
							c-0.45-0.02-0.86-0.35-0.94-0.8l0.95-0.17l0.06-0.96c1.45,0.06,9,1.24,15.81,18.42c0.2,0.49-0.05,1.05-0.54,1.25
							C132.87,430.04,132.75,430.06,132.63,430.06z"/>
					</g>
					<g>
						<path class="st17" d="M125.14,408.51c-0.43,0-0.82-0.28-0.93-0.72c-3.63-13.74-1.43-19.98-0.54-20.34
							c0.5-0.2,1.05,0.04,1.25,0.54c0.11,0.28,0.08,0.58-0.05,0.82c-0.14,0.31-2.23,5.49,1.2,18.49c0.14,0.51-0.17,1.04-0.68,1.18
							C125.3,408.5,125.22,408.51,125.14,408.51z"/>
					</g>
				</g>
			</g>
			<g>
				<g>
					<path class="st18" d="M210.25,404.49c2.74-3.18,15.05-14.23,20.53-13.7c-0.64,3.09-9.99,13.98-13.7,18.48
						c-4.68,5.15-9.79,14.87-11.78,21.32c-1.63,5.18-1.27,7.38-3.45,12.15c-1.66,3.26-10.25,14.45-13.44,18.54
						c-5.95,7.43-12.48,10.12-18.77,28.66c4.2-24.21,7.58-47.78,12.19-54.78c5.04-7.62,7.95-9.78,14.71-16.29
						C203.51,412.58,201.44,413.93,210.25,404.49z"/>
				</g>
				<g>
					<g>
						<path class="st17" d="M166.08,505.4c-0.06,0-0.13-0.01-0.19-0.02c-0.52-0.11-0.86-0.61-0.75-1.14
							c4.65-22.93,14.77-49.27,26.41-68.72c8.8-15.48,18.53-26.6,22.19-30.78c0.56-0.64,1.1-1.25,1.29-1.5
							c0.18-0.46,0.68-0.71,1.15-0.58c0.32,0.09,0.58,0.34,0.67,0.66c0.17,0.58,0.14,0.62-1.66,2.69
							c-3.63,4.14-13.26,15.15-21.98,30.48c-11.54,19.3-21.57,45.4-26.18,68.14C166.93,505.09,166.53,505.4,166.08,505.4z"/>
					</g>
					<g>
						<path class="st17" d="M179.85,461.77c-0.14,0-0.28-0.03-0.42-0.1c-0.48-0.23-0.68-0.81-0.45-1.29
							c5.4-11.15,12.83-12.23,14.27-12.34l0.1,0.96l0.96,0.03c-0.02,0.49-0.43,0.89-0.92,0.93c-0.77,0.05-7.63,0.84-12.67,11.26
							C180.55,461.57,180.21,461.77,179.85,461.77z"/>
					</g>
					<g>
						<path class="st17" d="M183.75,453.19c-0.12,0-0.25-0.02-0.37-0.07c-0.49-0.2-0.73-0.77-0.52-1.26
							c4.76-11.52,1.93-15.79,1.71-16.1c-0.28-0.27-0.38-0.7-0.22-1.08c0.21-0.49,0.78-0.71,1.26-0.51
							c0.06,0.02,4.93,4.12-0.98,18.42C184.48,452.97,184.12,453.19,183.75,453.19z"/>
					</g>
					<g>
						<path class="st17" d="M191.33,438.84c-0.2,0-0.41-0.06-0.58-0.2c-0.42-0.32-0.51-0.93-0.19-1.35
							c5.59-7.37,10.16-8.49,11.43-8.65l0.18,0.95l0.94,0.19c-0.08,0.41-0.46,0.72-0.87,0.78c-0.77,0.1-4.88,0.96-10.15,7.91
							C191.91,438.7,191.62,438.84,191.33,438.84z"/>
					</g>
				</g>
			</g>
		</g>
	</g>
	<g>
		<g>
			<circle class="st5" cx="317.2" cy="66.81" r="22.34"/>
			<g>
				<path class="st19" d="M302.06,65.52l9.23-3.9l0.84,2.6l-6.74,2.63l6.74,2.63l-0.84,2.6l-9.23-3.9V65.52z"/>
				<path class="st19" d="M315.92,77.24h-3.28l7.21-20.77h3.24L315.92,77.24z"/>
				<path class="st19" d="M333.66,68.17l-9.23,3.9l-0.84-2.6l6.74-2.63l-6.74-2.63l0.84-2.6l9.23,3.9V68.17z"/>
			</g>
		</g>
		<g>
			<circle class="st5" cx="277.02" cy="26.55" r="26.55"/>
			<g>
				<path class="st19" d="M263.29,21.82c0.12,0.41,0.25,0.88,0.4,1.39c0.15,0.52,0.3,1.05,0.47,1.61c0.17,0.55,0.33,1.11,0.5,1.66
					c0.17,0.55,0.34,1.07,0.5,1.54c0.13-0.51,0.27-1.07,0.4-1.67c0.14-0.6,0.26-1.23,0.39-1.87c0.12-0.64,0.24-1.28,0.36-1.92
					c0.12-0.64,0.22-1.25,0.33-1.85h2.44c-0.35,1.75-0.76,3.52-1.22,5.32c-0.46,1.8-0.96,3.51-1.49,5.13h-2.15
					c-0.35-0.96-0.69-1.98-1.02-3.04c-0.33-1.06-0.66-2.12-0.98-3.19c-0.32,1.07-0.64,2.13-0.97,3.19
					c-0.32,1.06-0.66,2.07-1.01,3.04h-2.15c-0.54-1.62-1.03-3.33-1.49-5.13c-0.46-1.8-0.87-3.57-1.22-5.32h2.55
					c0.1,0.59,0.21,1.21,0.33,1.85c0.12,0.64,0.25,1.28,0.38,1.92c0.13,0.64,0.26,1.27,0.4,1.87c0.14,0.6,0.28,1.16,0.42,1.67
					c0.18-0.49,0.36-1.02,0.53-1.57c0.17-0.55,0.34-1.11,0.5-1.66c0.16-0.55,0.31-1.09,0.45-1.6c0.14-0.51,0.26-0.97,0.37-1.37
					H263.29z"/>
				<path class="st19" d="M277.99,21.82c0.12,0.41,0.25,0.88,0.4,1.39c0.15,0.52,0.3,1.05,0.47,1.61c0.17,0.55,0.33,1.11,0.5,1.66
					c0.17,0.55,0.34,1.07,0.5,1.54c0.13-0.51,0.27-1.07,0.4-1.67c0.14-0.6,0.26-1.23,0.39-1.87c0.12-0.64,0.24-1.28,0.36-1.92
					c0.12-0.64,0.22-1.25,0.33-1.85h2.44c-0.35,1.75-0.76,3.52-1.22,5.32c-0.46,1.8-0.96,3.51-1.49,5.13h-2.15
					c-0.35-0.96-0.69-1.98-1.02-3.04c-0.33-1.06-0.66-2.12-0.98-3.19c-0.32,1.07-0.64,2.13-0.97,3.19
					c-0.32,1.06-0.66,2.07-1.01,3.04h-2.15c-0.54-1.62-1.03-3.33-1.49-5.13c-0.46-1.8-0.87-3.57-1.22-5.32h2.55
					c0.1,0.59,0.21,1.21,0.33,1.85c0.12,0.64,0.25,1.28,0.38,1.92c0.13,0.64,0.26,1.27,0.4,1.87c0.14,0.6,0.28,1.16,0.42,1.67
					c0.18-0.49,0.36-1.02,0.53-1.57c0.17-0.55,0.34-1.11,0.5-1.66c0.16-0.55,0.31-1.09,0.45-1.6c0.14-0.51,0.26-0.97,0.37-1.37
					H277.99z"/>
				<path class="st19" d="M292.69,21.82c0.12,0.41,0.25,0.88,0.4,1.39c0.15,0.52,0.3,1.05,0.47,1.61c0.17,0.55,0.33,1.11,0.5,1.66
					c0.17,0.55,0.34,1.07,0.5,1.54c0.13-0.51,0.27-1.07,0.4-1.67c0.14-0.6,0.26-1.23,0.39-1.87c0.12-0.64,0.24-1.28,0.36-1.92
					c0.12-0.64,0.22-1.25,0.33-1.85h2.44c-0.35,1.75-0.76,3.52-1.22,5.32c-0.46,1.8-0.96,3.51-1.49,5.13h-2.15
					c-0.35-0.96-0.69-1.98-1.02-3.04c-0.33-1.06-0.66-2.12-0.98-3.19c-0.32,1.07-0.64,2.13-0.97,3.19
					c-0.32,1.06-0.66,2.07-1.01,3.04h-2.15c-0.54-1.62-1.03-3.33-1.49-5.13c-0.46-1.8-0.87-3.57-1.22-5.32h2.55
					c0.1,0.59,0.21,1.21,0.33,1.85c0.12,0.64,0.25,1.28,0.38,1.92c0.13,0.64,0.26,1.27,0.4,1.87c0.14,0.6,0.28,1.16,0.42,1.67
					c0.18-0.49,0.36-1.02,0.53-1.57c0.17-0.55,0.34-1.11,0.5-1.66c0.16-0.55,0.31-1.09,0.45-1.6c0.14-0.51,0.26-0.97,0.37-1.37
					H292.69z"/>
			</g>
		</g>
		<g>
			
				<ellipse transform="matrix(0.7557 -0.6549 0.6549 0.7557 -5.1423 195.9072)" class="st0" cx="260.02" cy="104.85" rx="15.69" ry="15.69"/>
			<circle class="st0" cx="235.44" cy="143.41" r="7.85"/>
			<path class="st0" d="M245.84,184.36c0-2-1.62-3.63-3.63-3.63s-3.63,1.62-3.63,3.63s1.62,3.63,3.63,3.63
				S245.84,186.37,245.84,184.36z"/>
		</g>
		<g>
			<circle class="st5" cx="291.79" cy="108.01" r="18.85"/>
			<g>
				<path class="st19" d="M283.36,103.79H285v7.31h-1.64v-3.1h-2.76v3.1h-1.64v-7.31h1.64v2.79h2.76V103.79z"/>
				<path class="st19" d="M292.11,103.79v1.4h-2.2v5.9h-1.64v-5.9h-2.2v-1.4H292.11z"/>
				<path class="st19" d="M295,103.79c0.13,0.23,0.27,0.52,0.44,0.86c0.17,0.34,0.34,0.71,0.52,1.11c0.18,0.4,0.36,0.8,0.53,1.22
					c0.18,0.41,0.34,0.8,0.5,1.17c0.16-0.37,0.32-0.76,0.5-1.17c0.18-0.41,0.35-0.82,0.53-1.22c0.18-0.4,0.35-0.77,0.52-1.11
					c0.17-0.34,0.31-0.63,0.44-0.86h1.5c0.07,0.48,0.14,1.03,0.2,1.63c0.06,0.6,0.11,1.23,0.16,1.88c0.05,0.65,0.09,1.3,0.13,1.96
					c0.04,0.65,0.07,1.27,0.1,1.84h-1.6c-0.02-0.71-0.05-1.48-0.08-2.32c-0.04-0.84-0.09-1.68-0.16-2.53
					c-0.13,0.3-0.27,0.62-0.42,0.98c-0.16,0.36-0.31,0.72-0.46,1.08c-0.15,0.36-0.3,0.7-0.44,1.03c-0.14,0.33-0.26,0.61-0.36,0.84
					h-1.15c-0.1-0.23-0.22-0.51-0.36-0.84c-0.14-0.33-0.29-0.67-0.44-1.03c-0.15-0.36-0.3-0.72-0.46-1.08
					c-0.16-0.36-0.3-0.69-0.42-0.98c-0.07,0.85-0.12,1.69-0.16,2.53c-0.04,0.84-0.06,1.61-0.08,2.32h-1.6
					c0.03-0.58,0.06-1.19,0.1-1.84c0.04-0.65,0.08-1.31,0.13-1.96c0.05-0.65,0.1-1.28,0.16-1.88c0.06-0.6,0.12-1.14,0.2-1.63H295z"
					/>
				<path class="st19" d="M307.4,109.68v1.41h-4.88v-7.31h1.64v5.89H307.4z"/>
			</g>
		</g>
		<g>
			
				<ellipse transform="matrix(0.9697 -0.2445 0.2445 0.9697 -22.5213 66.0947)" class="st5" cx="255" cy="123.78" rx="15.03" ry="15.03"/>
			<g>
				<path class="st19" d="M249.38,127.65c-1.23,0-2.17-0.34-2.82-1.03c-0.65-0.69-0.97-1.66-0.97-2.92c0-0.63,0.1-1.19,0.29-1.68
					c0.2-0.49,0.47-0.91,0.81-1.25c0.34-0.34,0.75-0.6,1.23-0.77c0.47-0.17,0.99-0.26,1.54-0.26c0.32,0,0.61,0.02,0.88,0.07
					c0.26,0.05,0.49,0.1,0.69,0.16c0.2,0.06,0.36,0.13,0.49,0.19c0.13,0.07,0.23,0.12,0.28,0.15l-0.49,1.38
					c-0.23-0.12-0.51-0.23-0.82-0.32c-0.31-0.09-0.66-0.13-1.06-0.13c-0.26,0-0.52,0.04-0.77,0.13c-0.25,0.09-0.47,0.23-0.67,0.42
					c-0.19,0.19-0.35,0.44-0.46,0.75c-0.12,0.31-0.18,0.68-0.18,1.12c0,0.35,0.04,0.68,0.12,0.98c0.08,0.3,0.2,0.56,0.37,0.78
					c0.17,0.22,0.4,0.39,0.67,0.52c0.28,0.13,0.61,0.19,1.01,0.19c0.25,0,0.47-0.01,0.67-0.04c0.2-0.03,0.37-0.06,0.53-0.1
					c0.15-0.04,0.29-0.09,0.4-0.14c0.12-0.05,0.22-0.1,0.32-0.14l0.47,1.37c-0.24,0.15-0.58,0.28-1.02,0.39
					C250.46,127.59,249.96,127.65,249.38,127.65z"/>
				<path class="st19" d="M255.27,126.19c0.24,0,0.44-0.02,0.6-0.06s0.28-0.09,0.38-0.16c0.09-0.07,0.16-0.15,0.2-0.25
					c0.04-0.09,0.05-0.2,0.05-0.32c0-0.25-0.12-0.45-0.35-0.62c-0.23-0.16-0.63-0.34-1.2-0.53c-0.25-0.09-0.5-0.19-0.74-0.3
					c-0.25-0.11-0.47-0.26-0.67-0.43c-0.2-0.17-0.36-0.38-0.48-0.62c-0.12-0.24-0.19-0.54-0.19-0.89c0-0.35,0.07-0.67,0.2-0.95
					c0.13-0.28,0.32-0.52,0.56-0.72c0.24-0.2,0.53-0.35,0.88-0.45c0.34-0.11,0.73-0.16,1.16-0.16c0.51,0,0.95,0.05,1.32,0.16
					c0.37,0.11,0.68,0.23,0.92,0.36l-0.49,1.35c-0.21-0.11-0.45-0.21-0.71-0.29c-0.26-0.08-0.57-0.13-0.93-0.13
					c-0.41,0-0.7,0.06-0.88,0.17c-0.18,0.11-0.27,0.29-0.27,0.52c0,0.14,0.03,0.26,0.1,0.35c0.07,0.09,0.16,0.18,0.28,0.26
					c0.12,0.08,0.26,0.15,0.42,0.21c0.16,0.06,0.33,0.13,0.52,0.19c0.39,0.15,0.74,0.29,1.03,0.43c0.29,0.14,0.53,0.31,0.73,0.5
					c0.19,0.19,0.34,0.41,0.43,0.67c0.09,0.26,0.14,0.57,0.14,0.93c0,0.71-0.25,1.26-0.74,1.65c-0.5,0.39-1.24,0.59-2.24,0.59
					c-0.34,0-0.64-0.02-0.91-0.06c-0.27-0.04-0.51-0.09-0.72-0.15c-0.21-0.06-0.39-0.12-0.54-0.19c-0.15-0.07-0.28-0.13-0.38-0.19
					l0.48-1.36c0.23,0.12,0.5,0.23,0.84,0.33C254.38,126.15,254.79,126.19,255.27,126.19z"/>
				<path class="st19" d="M261.63,126.19c0.24,0,0.44-0.02,0.6-0.06c0.16-0.04,0.28-0.09,0.38-0.16c0.09-0.07,0.16-0.15,0.2-0.25
					c0.04-0.09,0.05-0.2,0.05-0.32c0-0.25-0.12-0.45-0.35-0.62c-0.23-0.16-0.63-0.34-1.2-0.53c-0.25-0.09-0.5-0.19-0.74-0.3
					c-0.25-0.11-0.47-0.26-0.67-0.43c-0.2-0.17-0.36-0.38-0.48-0.62c-0.12-0.24-0.19-0.54-0.19-0.89c0-0.35,0.07-0.67,0.2-0.95
					c0.13-0.28,0.32-0.52,0.56-0.72c0.24-0.2,0.53-0.35,0.88-0.45c0.34-0.11,0.73-0.16,1.16-0.16c0.51,0,0.95,0.05,1.32,0.16
					s0.68,0.23,0.92,0.36l-0.49,1.35c-0.21-0.11-0.45-0.21-0.71-0.29c-0.26-0.08-0.57-0.13-0.93-0.13c-0.41,0-0.7,0.06-0.88,0.17
					c-0.18,0.11-0.27,0.29-0.27,0.52c0,0.14,0.03,0.26,0.1,0.35c0.07,0.09,0.16,0.18,0.28,0.26c0.12,0.08,0.26,0.15,0.42,0.21
					c0.16,0.06,0.33,0.13,0.52,0.19c0.39,0.15,0.74,0.29,1.03,0.43c0.29,0.14,0.53,0.31,0.73,0.5c0.19,0.19,0.34,0.41,0.43,0.67
					c0.09,0.26,0.14,0.57,0.14,0.93c0,0.71-0.25,1.26-0.74,1.65c-0.5,0.39-1.24,0.59-2.24,0.59c-0.34,0-0.64-0.02-0.91-0.06
					c-0.27-0.04-0.51-0.09-0.72-0.15c-0.21-0.06-0.39-0.12-0.54-0.19c-0.15-0.07-0.28-0.13-0.38-0.19l0.48-1.36
					c0.23,0.12,0.5,0.23,0.84,0.33S261.15,126.19,261.63,126.19z"/>
			</g>
		</g>
		<g>
			<circle class="st5" cx="266.83" cy="146.37" r="13.29"/>
			<g>
				<path class="st19" d="M260.21,142.89c1,0,1.77,0.18,2.3,0.53c0.53,0.35,0.8,0.93,0.8,1.73c0,0.81-0.27,1.39-0.81,1.74
					c-0.54,0.36-1.31,0.54-2.32,0.54h-0.47v2.24h-1.51v-6.6c0.33-0.06,0.68-0.11,1.04-0.14
					C259.61,142.9,259.93,142.89,260.21,142.89z M260.3,144.17c-0.11,0-0.22,0-0.32,0.01c-0.11,0.01-0.2,0.01-0.28,0.02v1.93h0.47
					c0.52,0,0.92-0.07,1.18-0.21c0.26-0.14,0.4-0.41,0.4-0.79c0-0.19-0.03-0.34-0.1-0.46c-0.07-0.12-0.17-0.22-0.29-0.29
					c-0.13-0.07-0.28-0.13-0.46-0.15C260.72,144.19,260.52,144.17,260.3,144.17z"/>
				<path class="st19" d="M268.46,142.96h1.51v6.7h-1.51v-2.84h-2.53v2.84h-1.51v-6.7h1.51v2.56h2.53V142.96z"/>
				<path class="st19" d="M273.53,142.89c1,0,1.77,0.18,2.3,0.53c0.53,0.35,0.8,0.93,0.8,1.73c0,0.81-0.27,1.39-0.81,1.74
					c-0.54,0.36-1.31,0.54-2.32,0.54h-0.47v2.24h-1.51v-6.6c0.33-0.06,0.68-0.11,1.04-0.14
					C272.93,142.9,273.25,142.89,273.53,142.89z M273.62,144.17c-0.11,0-0.22,0-0.32,0.01c-0.11,0.01-0.2,0.01-0.28,0.02v1.93h0.47
					c0.52,0,0.92-0.07,1.18-0.21c0.26-0.14,0.4-0.41,0.4-0.79c0-0.19-0.03-0.34-0.1-0.46c-0.07-0.12-0.17-0.22-0.29-0.29
					c-0.13-0.07-0.28-0.13-0.46-0.15C274.04,144.19,273.84,144.17,273.62,144.17z"/>
			</g>
		</g>
		<g>
			
				<ellipse transform="matrix(0.9813 -0.1927 0.1927 0.9813 -28.2125 50.4133)" class="st5" cx="245.05" cy="170.24" rx="9.62" ry="9.62"/>
			<g>
				<path class="st19" d="M243.72,171.3c0,0.37-0.04,0.72-0.13,1.05c-0.08,0.33-0.23,0.62-0.44,0.86c-0.21,0.24-0.49,0.44-0.84,0.58
					c-0.35,0.14-0.8,0.21-1.34,0.21c-0.5,0-0.92-0.06-1.28-0.18c-0.36-0.12-0.65-0.26-0.89-0.42l0.57-1.33
					c0.21,0.12,0.44,0.23,0.68,0.33c0.24,0.1,0.5,0.14,0.79,0.14c0.42,0,0.72-0.1,0.9-0.31c0.18-0.2,0.27-0.55,0.27-1.03v-4.95h1.71
					V171.3z"/>
				<path class="st19" d="M247.43,172.55c0.24,0,0.44-0.02,0.6-0.06c0.16-0.04,0.28-0.09,0.38-0.16c0.09-0.07,0.16-0.15,0.2-0.25
					c0.04-0.1,0.05-0.2,0.05-0.32c0-0.25-0.12-0.46-0.35-0.62c-0.23-0.16-0.64-0.34-1.21-0.53c-0.25-0.09-0.5-0.19-0.75-0.3
					c-0.25-0.11-0.47-0.26-0.67-0.43c-0.2-0.17-0.36-0.38-0.48-0.62c-0.12-0.24-0.19-0.54-0.19-0.89s0.07-0.67,0.2-0.95
					c0.13-0.28,0.32-0.52,0.56-0.72c0.24-0.2,0.53-0.35,0.88-0.46c0.34-0.11,0.73-0.16,1.16-0.16c0.51,0,0.95,0.05,1.33,0.16
					c0.37,0.11,0.68,0.23,0.92,0.36l-0.49,1.35c-0.21-0.11-0.45-0.21-0.71-0.29c-0.26-0.08-0.57-0.13-0.94-0.13
					c-0.41,0-0.7,0.06-0.88,0.17c-0.18,0.11-0.27,0.29-0.27,0.52c0,0.14,0.03,0.26,0.1,0.35c0.07,0.1,0.16,0.18,0.28,0.26
					c0.12,0.08,0.26,0.15,0.42,0.21c0.16,0.06,0.33,0.13,0.52,0.19c0.39,0.15,0.74,0.29,1.03,0.43c0.29,0.14,0.54,0.31,0.73,0.5
					c0.19,0.19,0.34,0.41,0.43,0.67c0.09,0.26,0.14,0.57,0.14,0.93c0,0.71-0.25,1.26-0.75,1.65c-0.5,0.39-1.25,0.59-2.25,0.59
					c-0.34,0-0.64-0.02-0.91-0.06c-0.27-0.04-0.51-0.09-0.72-0.15c-0.21-0.06-0.39-0.12-0.54-0.19c-0.15-0.07-0.28-0.13-0.38-0.19
					l0.48-1.36c0.23,0.12,0.51,0.24,0.84,0.33C246.54,172.5,246.95,172.55,247.43,172.55z"/>
			</g>
		</g>
		<g>
			<path class="st5" d="M260.02,191.96c0-3.57-2.9-6.47-6.47-6.47c-3.57,0-6.47,2.9-6.47,6.47s2.9,6.47,6.47,6.47
				C257.12,198.43,260.02,195.53,260.02,191.96z"/>
			<g>
				<path class="st19" d="M250.73,191.63c0.22,0,0.38-0.06,0.48-0.19c0.1-0.13,0.15-0.3,0.15-0.5v-1.11c0-0.21,0.03-0.4,0.08-0.56
					c0.05-0.17,0.14-0.3,0.27-0.42c0.13-0.11,0.29-0.2,0.5-0.26c0.21-0.06,0.47-0.09,0.78-0.09h0.15v0.88h-0.18
					c-0.22,0-0.37,0.05-0.45,0.15c-0.08,0.1-0.11,0.25-0.11,0.46v0.98c0,0.26-0.03,0.47-0.1,0.65c-0.07,0.18-0.21,0.33-0.41,0.46
					c0.21,0.13,0.34,0.28,0.41,0.46c0.07,0.18,0.1,0.39,0.1,0.65v0.98c0,0.21,0.04,0.36,0.11,0.46c0.08,0.1,0.23,0.15,0.45,0.15
					h0.18v0.88h-0.15c-0.31,0-0.57-0.03-0.78-0.09s-0.38-0.15-0.5-0.26c-0.12-0.11-0.21-0.25-0.27-0.42
					c-0.05-0.16-0.08-0.35-0.08-0.56v-1.11c0-0.21-0.05-0.37-0.15-0.5c-0.1-0.13-0.26-0.19-0.48-0.19V191.63z"/>
				<path class="st19" d="M256.35,192.5c-0.22,0-0.38,0.06-0.48,0.19c-0.1,0.13-0.15,0.3-0.15,0.5v1.11c0,0.21-0.03,0.4-0.08,0.56
					c-0.05,0.17-0.14,0.3-0.27,0.42c-0.12,0.11-0.29,0.2-0.5,0.26s-0.47,0.09-0.78,0.09h-0.15v-0.88h0.18
					c0.22,0,0.37-0.05,0.45-0.15c0.08-0.1,0.11-0.25,0.11-0.46v-0.98c0-0.26,0.03-0.47,0.1-0.65c0.07-0.18,0.21-0.33,0.41-0.46
					c-0.21-0.13-0.34-0.28-0.41-0.46c-0.07-0.18-0.1-0.39-0.1-0.65v-0.98c0-0.21-0.04-0.36-0.11-0.46c-0.08-0.1-0.23-0.15-0.45-0.15
					h-0.18v-0.88h0.15c0.31,0,0.57,0.03,0.78,0.09c0.21,0.06,0.38,0.15,0.5,0.26c0.13,0.11,0.22,0.25,0.27,0.42
					c0.05,0.16,0.08,0.35,0.08,0.56v1.11c0,0.21,0.05,0.37,0.15,0.5c0.1,0.13,0.26,0.19,0.48,0.19V192.5z"/>
			</g>
		</g>
	</g>
</g>
</svg>
